<?xml version="1.0" encoding="UTF-8" standalone="no"?>
<svg
   xmlns:dc="http://purl.org/dc/elements/1.1/"
   xmlns:cc="http://creativecommons.org/ns#"
   xmlns:rdf="http://www.w3.org/1999/02/22-rdf-syntax-ns#"
   xmlns:svg="http://www.w3.org/2000/svg"
   xmlns="http://www.w3.org/2000/svg"
   xmlns:sodipodi="http://sodipodi.sourceforge.net/DTD/sodipodi-0.dtd"
   xmlns:inkscape="http://www.inkscape.org/namespaces/inkscape"
   version="1.1"
   x="0px"
   y="0px"
   width="144"
   height="144"
   viewBox="0 0 144 144"
   enable-background="new 0 0 100 100"
   xml:space="preserve"
   id="svg2"
   inkscape:version="0.48.3.1 r9886"
   sodipodi:docname="dozepoa.svg"><metadata
   id="metadata18"><rdf:RDF><cc:Work
       rdf:about=""><dc:format>image/svg+xml</dc:format><dc:type
         rdf:resource="http://purl.org/dc/dcmitype/StillImage" /></cc:Work></rdf:RDF></metadata><defs
   id="defs16">
	
	
	
	
</defs><sodipodi:namedview
   pagecolor="#ffffff"
   bordercolor="#666666"
   borderopacity="1"
   objecttolerance="10"
   gridtolerance="10"
   guidetolerance="10"
   inkscape:pageopacity="0"
   inkscape:pageshadow="2"
   inkscape:window-width="1366"
   inkscape:window-height="744"
   id="namedview14"
   showgrid="false"
   inkscape:zoom="2.36"
   inkscape:cx="50"
   inkscape:cy="56.732881"
   inkscape:window-x="0"
   inkscape:window-y="24"
   inkscape:window-maximized="1"
   inkscape:current-layer="svg2" />
<g
   id="Captions"
   transform="matrix(1.4413513,0,0,1.4413513,0,0.323433)">
</g>
<path
   style="fill:#ff2a2a"
   d="m 123.32562,46.266505 c 1.30298,3.903179 2.0269,8.007787 2.0269,12.206443 0,28.006897 -30.722044,50.717552 -68.599314,50.717552 -3.600495,0 -7.134328,-0.23566 -10.584923,-0.63059 10.364757,7.74005 24.73575,12.56678 40.628089,12.56678 6.89292,0 13.518858,-0.91476 19.638408,-2.56741 11.19689,10.40048 25.01345,11.5753 28.28652,11.3056 3.86282,-0.31998 5.42561,-2.41463 1.84673,-4.54927 -2.52519,-1.50616 -8.35487,-7.38875 -13.0172,-14.09821 C 136.05055,103.46053 144,91.843773 144,78.832035 143.999,65.750331 135.94897,54.023857 123.32562,46.266505 z"
   id="path6"
   inkscape:connector-curvature="0" /><path
   style="fill:#66ff00"
   d="M 57.068502,16.178297 C 25.549443,16.178297 0,35.186298 0,58.608075 0,71.446466 7.6897393,82.901269 19.81858,90.67814 c -4.395572,6.56333 -9.758972,12.25545 -12.1614014,13.78292 -3.5183384,2.23698 -1.9346537,4.25019 1.9368158,4.45918 3.1512636,0.17006 16.0388366,-1.19566 26.7100406,-10.81013 6.434299,1.86813 13.439827,2.8827 20.764467,2.8827 31.519058,0 57.068498,-18.962959 57.068498,-42.384735 0,-23.421777 -25.54944,-42.429778 -57.068498,-42.429778 z"
   id="ellipse8"
   inkscape:connector-curvature="0" />
<flowRoot
   xml:space="preserve"
   id="flowRoot3001"
   style="font-size:40px;font-style:normal;font-variant:normal;font-weight:normal;font-stretch:normal;line-height:125%;letter-spacing:0px;word-spacing:0px;fill:#000000;fill-opacity:1;stroke:none;font-family:Source Sans Pro;-inkscape-font-specification:Source Sans Pro"
   transform="matrix(1.4413513,0,0,1.4413513,0,0.323433)"><flowRegion
     id="flowRegion3003"><rect
       id="rect3005"
       width="60.169491"
       height="49.576271"
       x="15.677966"
       y="20.762712"
       style="font-style:normal;font-variant:normal;font-weight:normal;font-stretch:normal;font-family:Source Sans Pro;-inkscape-font-specification:Source Sans Pro" /></flowRegion><flowPara
     id="flowPara3007">Doze Poa</flowPara></flowRoot><flowRoot
   xml:space="preserve"
   id="flowRoot3009"
   style="font-size:40px;font-style:normal;font-variant:normal;font-weight:500;font-stretch:normal;line-height:125%;letter-spacing:0px;word-spacing:0px;fill:#000000;fill-opacity:1;stroke:none;font-family:Century Schoolbook L;-inkscape-font-specification:Century Schoolbook L Medium"
   transform="matrix(1.4413513,0,0,1.4413513,0,0.323433)"><flowRegion
     id="flowRegion3011"><rect
       id="rect3013"
       width="180.93221"
       height="169.49153"
       x="-124.57627"
       y="-28.813559" /></flowRegion><flowPara
     id="flowPara3015"></flowPara></flowRoot><flowRoot
   xml:space="preserve"
   id="flowRoot3017"
   style="font-size:40px;font-style:normal;font-variant:normal;font-weight:500;font-stretch:normal;line-height:125%;letter-spacing:0px;word-spacing:0px;fill:#000000;fill-opacity:1;stroke:none;font-family:Century Schoolbook L;-inkscape-font-specification:Century Schoolbook L Medium"
   transform="matrix(1.4413513,0,0,1.4413513,312.60054,105.52018)"><flowRegion
     id="flowRegion3019"><rect
       id="rect3021"
       width="224.15254"
       height="137.28813"
       x="-202.96609"
       y="-50" /></flowRegion><flowPara
     id="flowPara3023"
     style="font-size:22px;font-style:normal;font-variant:normal;font-weight:bold;font-stretch:normal;line-height:81.00000024%;font-family:Source Sans Pro;-inkscape-font-specification:Source Sans Pro Bold">doze</flowPara><flowPara
     id="flowPara3025"
     style="font-size:22px;font-style:normal;font-variant:normal;font-weight:bold;font-stretch:normal;line-height:81.00000024%;font-family:Source Sans Pro;-inkscape-font-specification:Source Sans Pro Bold">poa :)</flowPara></flowRoot></svg>