<?xml version="1.0" encoding="utf-8"?>
<!-- Generator: Adobe Illustrator 16.2.1, SVG Export Plug-In . SVG Version: 6.00 Build 0)  -->
<!DOCTYPE svg PUBLIC "-//W3C//DTD SVG 1.1//EN" "http://www.w3.org/Graphics/SVG/1.1/DTD/svg11.dtd">
<svg version="1.1" id="Layer_1" xmlns="http://www.w3.org/2000/svg" xmlns:xlink="http://www.w3.org/1999/xlink" x="0px" y="0px"
	 width="83.167px" height="14.813px" viewBox="0 0 83.167 14.813" enable-background="new 0 0 83.167 14.813" xml:space="preserve">
<g>
	<path fill="#FFFFFF" d="M29.728,11.069l-2.624-0.128h-1.318V9.405h1.126V3.531c-1.28,0.034-2.174,0.172-2.682,0.416
		c-0.507,0.243-0.761,0.612-0.761,1.107c0,0.495,0.218,0.742,0.653,0.742c0.401,0,0.602-0.273,0.602-0.819h1.6
		c0,0.657-0.175,1.214-0.525,1.67c-0.35,0.457-0.909,0.685-1.676,0.685c-0.768,0-1.335-0.218-1.702-0.653
		c-0.367-0.436-0.551-0.96-0.551-1.574c0-0.973,0.457-1.736,1.37-2.291s2.372-0.832,4.377-0.832h0.576
		c1.817,0,3.206,0.438,4.166,1.312s1.44,2.059,1.44,3.551c0,1.459-0.431,2.578-1.293,3.354
		C31.839,10.779,30.914,11.069,29.728,11.069z M28.576,9.456c0.58,0.052,1.028,0.077,1.344,0.077c0.316,0,0.634-0.079,0.954-0.236
		c0.32-0.158,0.565-0.369,0.736-0.634c0.307-0.503,0.461-1.109,0.461-1.818c0-1.058-0.296-1.877-0.89-2.457
		c-0.593-0.58-1.461-0.871-2.604-0.871V9.456z"/>
	<path fill="#FFFFFF" d="M35.487,10.129c-0.572-0.628-0.858-1.423-0.858-2.388c0-0.964,0.286-1.76,0.858-2.387
		c0.571-0.627,1.374-0.941,2.406-0.941s1.834,0.313,2.406,0.941c0.572,0.627,0.857,1.423,0.857,2.387
		c0,0.965-0.286,1.76-0.857,2.388c-0.572,0.627-1.374,0.94-2.406,0.94S36.059,10.756,35.487,10.129z M36.716,6.455
		c-0.282,0.337-0.422,0.766-0.422,1.286s0.141,0.949,0.422,1.286c0.282,0.338,0.674,0.506,1.177,0.506s0.896-0.168,1.178-0.506
		c0.281-0.337,0.422-0.766,0.422-1.286s-0.141-0.949-0.422-1.286c-0.282-0.337-0.674-0.505-1.178-0.505S36.998,6.118,36.716,6.455z"
		/>
	<path fill="#FFFFFF" d="M47.3,8.522v2.419h-5.465V9.405l3.315-3.328h-1.498V6.82h-1.664V4.542h5.401v1.536L44.1,9.405h1.536V8.522
		H47.3z"/>
	<path fill="#FFFFFF" d="M54.108,7.69v0.678h-4.326c0.026,0.342,0.169,0.621,0.429,0.839c0.261,0.218,0.565,0.326,0.916,0.326
		c0.35,0,0.646-0.025,0.889-0.077c0.243-0.051,0.414-0.098,0.513-0.141c0.098-0.042,0.245-0.119,0.441-0.23l0.307-0.166l0.666,1.293
		c-0.7,0.571-1.57,0.857-2.611,0.857s-1.836-0.313-2.387-0.94c-0.551-0.628-0.825-1.423-0.825-2.388c0-0.964,0.274-1.76,0.825-2.387
		c0.551-0.627,1.301-0.941,2.253-0.941c0.951,0,1.674,0.307,2.169,0.921C53.861,5.95,54.108,6.734,54.108,7.69z M52.093,6.257
		c-0.2-0.205-0.486-0.307-0.857-0.307s-0.679,0.104-0.922,0.313s-0.402,0.48-0.479,0.812h2.61
		C52.41,6.734,52.293,6.461,52.093,6.257z"/>
	<path fill="#FFFFFF" d="M60.79,6.647c-0.351,0.457-0.909,0.685-1.677,0.685s-1.336-0.218-1.702-0.653
		c-0.367-0.436-0.551-0.96-0.551-1.574c0-0.973,0.457-1.736,1.37-2.291c0.912-0.555,2.371-0.832,4.377-0.832h0.575
		c1.596,0,2.779,0.262,3.552,0.787s1.158,1.246,1.158,2.163s-0.287,1.632-0.863,2.144c-0.576,0.512-1.308,0.768-2.195,0.768
		c-0.478,0-0.9-0.034-1.267-0.103v1.664h1.497v1.536h-4.402V9.405h1.241V3.531c-1.28,0.034-2.174,0.172-2.682,0.416
		S58.46,4.559,58.46,5.054c0,0.495,0.218,0.742,0.653,0.742c0.4,0,0.602-0.273,0.602-0.819h1.6C61.314,5.634,61.14,6.19,60.79,6.647
		z M63.567,3.518v2.649c0.332,0.094,0.723,0.141,1.171,0.141s0.809-0.128,1.081-0.384c0.273-0.256,0.41-0.604,0.41-1.043
		s-0.203-0.776-0.608-1.011C65.216,3.635,64.531,3.518,63.567,3.518z"/>
	<path fill="#FFFFFF" d="M69.582,10.129c-0.572-0.628-0.857-1.423-0.857-2.388c0-0.964,0.285-1.76,0.857-2.387
		c0.571-0.627,1.373-0.941,2.406-0.941c1.032,0,1.834,0.313,2.406,0.941c0.571,0.627,0.857,1.423,0.857,2.387
		c0,0.965-0.286,1.76-0.857,2.388c-0.572,0.627-1.374,0.94-2.406,0.94C70.955,11.069,70.153,10.756,69.582,10.129z M70.811,6.455
		c-0.281,0.337-0.423,0.766-0.423,1.286s0.142,0.949,0.423,1.286c0.281,0.338,0.674,0.506,1.178,0.506
		c0.503,0,0.896-0.168,1.177-0.506c0.282-0.337,0.423-0.766,0.423-1.286s-0.141-0.949-0.423-1.286
		c-0.281-0.337-0.674-0.505-1.177-0.505C71.484,5.95,71.092,6.118,70.811,6.455z"/>
	<path fill="#FFFFFF" d="M78.093,11.069c-0.648,0-1.156-0.167-1.522-0.499c-0.367-0.333-0.551-0.8-0.551-1.401
		s0.239-1.111,0.717-1.53c0.478-0.418,1.182-0.627,2.112-0.627h1.011V6.551c0-0.401-0.252-0.601-0.755-0.601
		c-0.504,0-0.952,0.055-1.344,0.166v0.729h-1.473V4.938c0.418-0.162,0.907-0.29,1.466-0.384c0.559-0.094,1.026-0.141,1.401-0.141
		c0.742,0,1.322,0.194,1.74,0.583s0.628,0.907,0.628,1.555v3.047h1.049v1.113c-0.366,0.196-0.827,0.294-1.382,0.294
		c-0.888,0-1.331-0.298-1.331-0.896C79.33,10.749,78.741,11.069,78.093,11.069z M78.208,9.533c0.589,0,1.14-0.35,1.651-1.05V8.433
		h-1.024c-0.393,0-0.683,0.068-0.87,0.205s-0.281,0.319-0.281,0.55S77.858,9.533,78.208,9.533z"/>
</g>
<g>
	<g>
		<g>
			<path fill="#E42F44" d="M16.561,4.466c-0.08-0.131-0.223-0.211-0.375-0.211c-0.011,0-1.014-0.005-1.538-0.436
				C14.144,3.404,12.4,2.034,11.12,1.812c-0.112-0.02-0.233-0.029-0.36-0.029c-0.822,0-1.784,0.426-2.203,0.633
				C8.138,2.208,7.176,1.782,6.354,1.782c-0.127,0-0.248,0.01-0.36,0.029C4.872,2.007,3.306,3.15,2.472,3.814
				c-0.428,0.341-1.268,0.434-1.554,0.44C0.767,4.259,0.627,4.339,0.551,4.47C0.474,4.601,0.47,4.762,0.541,4.896
				c0.11,0.209,2.768,5.125,8.017,5.125s7.905-4.916,8.016-5.125C16.645,4.761,16.639,4.598,16.561,4.466z M8.557,9.147
				c-3.712,0-6.054-2.859-6.894-4.099C2.091,4.97,2.622,4.812,3.016,4.497C4.323,3.456,5.464,2.79,6.144,2.671
				c0.063-0.01,0.134-0.016,0.211-0.016c0.836,0,1.979,0.627,1.99,0.633c0.132,0.072,0.292,0.072,0.424,0
				c0.317-0.176,1.294-0.633,1.991-0.633c0.076,0,0.146,0.006,0.211,0.017c0.85,0.147,2.213,1.073,3.121,1.821
				c0.399,0.328,0.927,0.487,1.355,0.564C14.604,6.302,12.271,9.147,8.557,9.147z"/>
			<path fill="#E42F44" d="M13.53,4.798c-0.058-0.014-1.402-0.348-2.416-0.348c-0.616,0-1.182,0.219-1.682,0.413
				C9.093,4.995,8.771,5.12,8.557,5.12c-0.215,0-0.536-0.125-0.876-0.257C7.181,4.669,6.614,4.45,5.999,4.45
				c-1.015,0-2.359,0.334-2.416,0.348C3.43,4.837,3.31,4.955,3.267,5.108c-0.04,0.153,0.006,0.316,0.119,0.427
				C3.495,5.642,6.092,8.13,8.557,8.13s5.062-2.488,5.172-2.595c0.113-0.11,0.158-0.273,0.117-0.427S13.684,4.837,13.53,4.798z
				 M8.557,7.257c-1.446,0-3.044-1.094-3.913-1.789c0.423-0.074,0.932-0.145,1.355-0.145c0.452,0,0.916,0.181,1.365,0.354
				c0.419,0.163,0.814,0.315,1.192,0.315s0.774-0.152,1.192-0.315c0.449-0.174,0.913-0.354,1.365-0.354
				c0.425,0,0.933,0.07,1.354,0.145C11.601,6.163,10.004,7.257,8.557,7.257z"/>
		</g>
		<g>
			<path fill="#E42F44" d="M1.868,11.337c-0.074,0-0.148-0.025-0.209-0.074c-0.145-0.115-0.166-0.326-0.051-0.469L2.69,9.452
				c0.116-0.145,0.326-0.166,0.469-0.051C3.303,9.517,3.325,9.728,3.21,9.87l-1.082,1.342C2.062,11.294,1.966,11.337,1.868,11.337z"
				/>
			<path fill="#E42F44" d="M8.617,13.702L8.617,13.702c-0.185,0-0.333-0.15-0.333-0.334v-1.725c0-0.184,0.15-0.332,0.334-0.332l0,0
				c0.184,0,0.334,0.148,0.333,0.334v1.723C8.951,13.552,8.802,13.702,8.617,13.702z"/>
			<path fill="#E42F44" d="M15.356,11.308c-0.098,0-0.194-0.043-0.26-0.125l-1.081-1.342c-0.115-0.145-0.093-0.354,0.051-0.469
				c0.143-0.115,0.354-0.094,0.469,0.051l1.082,1.342c0.115,0.143,0.092,0.354-0.052,0.469
				C15.504,11.282,15.43,11.308,15.356,11.308z"/>
			<path fill="#E42F44" d="M12.436,12.991c-0.135,0-0.262-0.082-0.312-0.215l-0.611-1.611c-0.066-0.172,0.021-0.365,0.193-0.43
				c0.171-0.064,0.365,0.02,0.43,0.193l0.613,1.611c0.064,0.172-0.022,0.365-0.194,0.43C12.515,12.985,12.475,12.991,12.436,12.991z
				"/>
			<path fill="#E42F44" d="M4.815,13.017c-0.038,0-0.078-0.008-0.117-0.023c-0.172-0.064-0.259-0.256-0.193-0.43l0.609-1.611
				c0.065-0.172,0.258-0.26,0.43-0.195c0.173,0.066,0.26,0.26,0.195,0.432L5.129,12.8C5.078,12.933,4.951,13.017,4.815,13.017z"/>
		</g>
	</g>
</g>
</svg>
