<svg version="1.1" id="Your_Icon" xmlns="http://www.w3.org/2000/svg" xmlns:xlink="http://www.w3.org/1999/xlink" x="0px" y="0px" width="100px" height="100px" viewBox="-0.106 2.864 100 94.235" enable-background="new -0.106 2.864 100 94.235" xml:space="preserve">
<path d="M96.228,14.926h-8.146V6.531c0-2.025-1.481-3.667-3.508-3.667c-2.025,0-3.507,1.642-3.507,3.667v10.526l-5.952,5.195
	c-3.833-3.112-8.871-4.985-14.181-4.985c-7.352,0-14.072,3.564-18.159,9.248c-4.088-5.683-10.768-9.248-18.121-9.248
	c-12.296,0-22.319,10.004-22.319,22.301c0,12.398,8.255,24.335,17.112,33.582L6.909,84.704V81.78c0-2.025-1.482-3.668-3.507-3.668
	s-3.507,1.643-3.507,3.668v12.133c0,2.024,1.297,3.187,3.322,3.187h12.133c2.025,0,3.667-1.483,3.667-3.507
	c0-2.028-1.642-3.508-3.667-3.508h-3.655l12.978-11.879c8.051,7.407,15.349,12.235,16.029,12.675
	c0.606,0.395,1.301,0.611,1.993,0.611c0.736,0,1.474-0.211,2.104-0.651c1.563-1.097,38.275-27.108,38.275-51.277
	c0-4.342-1.268-8.078-3.422-11.508l5.877-5.113h10.699c2.025,0,3.667-1.983,3.667-4.009S98.253,14.926,96.228,14.926z M75.74,39.569
	c0,15.826-22.244,35.69-33.104,43.789c-3.062-2.166-9.122-6.691-15.221-12.579c-0.001-0.002-0.002-0.004-0.003-0.004
	c-0.004-0.004-0.01-0.011-0.014-0.015C18.562,62.226,9.647,50.827,9.647,39.569c0-8.253,6.714-14.967,14.967-14.967
	c6.906,0,12.875,4.688,14.517,11.403c0.401,1.641,1.873,2.796,3.563,2.796c1.689,0,3.159-1.155,3.562-2.795
	c1.643-6.714,7.613-11.403,14.518-11.403c3.178,0,6.122,1.004,8.549,2.701l-10.829,9.991c-1.49,1.374-1.584,3.694-0.21,5.181
	c0.723,0.784,1.709,1.181,2.696,1.181c0.889,0,1.78-0.321,2.484-0.971l10.663-9.835C75.151,34.871,75.74,37.15,75.74,39.569z"></path>
</svg>
