<svg xmlns="http://www.w3.org/2000/svg" xmlns:xlink="http://www.w3.org/1999/xlink" version="1.1" x="0px" y="0px" width="100px" height="100px" viewBox="0 0 100 100" enable-background="new 0 0 100 100" xml:space="preserve">
<g id="Captions">
</g>
<g id="Your_Icon">
	<path d="M80,74.21c-2.53,0-4.69,1.57-5.57,3.79H26.72l5.3-18.27l43.6-2.33C80.88,57.12,85,52.77,85,47.5V31.13l-61.57-4.04   c-1.1-3.08-3.68-5.47-6.93-6.28l-7.01-1.75c-1.07-0.27-2.16,0.38-2.43,1.46c-0.27,1.07,0.38,2.15,1.46,2.42l7.01,1.75   c2.26,0.57,3.99,2.42,4.39,4.71l5.03,28.51L20.5,74.23c-3.08,0.26-5.5,2.84-5.5,5.979c0,3.31,2.69,6,6,6   c2.69,0,4.96-1.77,5.73-4.21h47.54c0.771,2.44,3.04,4.21,5.73,4.21c3.31,0,6-2.69,6-6S83.31,74.21,80,74.21z M63.532,54.038   l-7.471,0.4l-1.719-21.317l8.318,0.545L63.532,54.038z M64.669,33.799L73,34.345v19.184l-7.471,0.401L64.669,33.799z    M54.063,54.546l-7.469,0.401l-2.577-22.503l8.308,0.545L54.063,54.546z M44.593,55.055l-7.464,0.4l-3.433-23.688l8.293,0.544   L44.593,55.055z M81,47.5c0,3.14-2.46,5.74-5.6,5.9L75,53.422V34.477l6,0.394V47.5z M31.655,31.633l3.468,23.931L28.66,55.91   l-4.37-24.76L31.655,31.633z M22.6,81.4c-0.36,0.489-0.94,0.81-1.6,0.81c-1.1,0-2-0.9-2-2c0-0.8,0.47-1.49,1.15-1.8   c0.26-0.13,0.55-0.2,0.85-0.2c1.1,0,2,0.9,2,2C23,80.65,22.86,81.07,22.6,81.4z M25.23,75.96c-0.26-0.27-0.55-0.51-0.86-0.71   l4.18-15.33l1.35-0.07L25.23,75.96z M80.87,82c-0.26,0.14-0.561,0.21-0.87,0.21s-0.61-0.07-0.87-0.21C78.46,81.68,78,81,78,80.21   c0-1.1,0.9-2,2-2s2,0.9,2,2C82,81,81.54,81.68,80.87,82z"></path>
</g>
</svg>
