<svg xmlns="http://www.w3.org/2000/svg" xmlns:xlink="http://www.w3.org/1999/xlink" xmlns:a="http://ns.adobe.com/AdobeSVGViewerExtensions/3.0/" version="1.1" x="0px" y="0px" width="100px" height="100px" viewBox="94 156 100 100" overflow="visible" enable-background="new 94 156 100 100" xml:space="preserve">
<defs>
</defs>
<polygon fill="none" stroke="#000000" stroke-width="4" points="187,250 177,224 186,217 183,205 190,198 178,193 190,180 176,176   180,160 164,166 159,159 146,165 135,159 130,168 111,159 111,174 100,181 109,192 100,200 108,204 98,216 106,229 99,249 122,241   126,251 138,240 146,247 152,239 160,243 165,233 "></polygon>
<path display="none" fill="none" stroke="#000000" stroke-width="4" d="M191.5,202.75c0-7.167-4.023-13.389-9.933-16.545  c0.914-2.05,1.433-4.315,1.433-6.705c0-9.113-7.387-16.5-16.5-16.5c-3.256,0-6.282,0.956-8.839,2.583  C153.997,160.968,148.35,158,142,158c-5.865,0-11.123,2.54-14.781,6.561C124.52,162.945,121.374,162,118,162  c-9.941,0-18,8.059-18,18c0,6.784,3.756,12.687,9.299,15.754C101.616,198.003,96,205.09,96,213.5  c0,7.557,4.537,14.045,11.029,16.916C107.023,230.611,107,230.803,107,231c0,9.389,7.611,17,17,17c4.162,0,7.971-1.501,10.926-3.983  c2.241,1.258,4.821,1.983,7.574,1.983c6.327,0,11.76-3.797,14.169-9.231C158.627,237.556,160.76,238,163,238c9.389,0,17-7.611,17-17  c0-0.316-0.03-0.626-0.047-0.938C186.732,217.237,191.5,210.553,191.5,202.75z"></path>
<circle display="none" fill="none" stroke="#000000" stroke-width="4" cx="180" cy="241" r="5"></circle>
<circle display="none" fill="none" stroke="#000000" stroke-width="4" cx="188.5" cy="250.5" r="3.5"></circle>
</svg>
